<svg xmlns="http://www.w3.org/2000/svg" viewBox="0 0 1668.45 115.38"><defs><style>.cls-1{fill:#fff;}</style></defs><title>CrisedeIdentidade</title><g id="Camada_2" data-name="Camada 2"><g id="Layer_1" data-name="Layer 1"><g id="_Grupo_" data-name="&lt;Grupo&gt;"><g id="_Grupo_2" data-name="&lt;Grupo&gt;"><rect id="_Retângulo_" data-name="&lt;Retângulo&gt;" class="cls-1" x="28.45" y="1.38" width="53.18" height="14.88" rx="6.44" ry="6.44"/><rect id="_Retângulo_2" data-name="&lt;Retângulo&gt;" class="cls-1" x="-17.68" y="49.59" width="50.35" height="14.88" rx="6.27" ry="6.27" transform="translate(-49.53 64.53) rotate(-90)"/><rect id="_Retângulo_3" data-name="&lt;Retângulo&gt;" class="cls-1" x="-5.67" y="15.85" width="53.18" height="14.88" rx="6.44" ry="6.44" transform="translate(-10.38 22.82) rotate(-47.21)"/><rect id="_Retângulo_4" data-name="&lt;Retângulo&gt;" class="cls-1" x="63.98" y="12.17" width="41.98" height="14.88" rx="5.88" ry="5.88" transform="translate(42.25 -56.4) rotate(47.67)"/><rect id="_Retângulo_5" data-name="&lt;Retângulo&gt;" class="cls-1" x="28.39" y="98.15" width="53.18" height="14.88" rx="6.44" ry="6.44"/><rect id="_Retângulo_6" data-name="&lt;Retângulo&gt;" class="cls-1" x="-5.73" y="83.69" width="53.18" height="14.88" rx="6.44" ry="6.44" transform="translate(73.57 13.92) rotate(47.21)"/><rect id="_Retângulo_7" data-name="&lt;Retângulo&gt;" class="cls-1" x="63.92" y="87.37" width="41.98" height="14.88" rx="5.88" ry="5.88" transform="translate(-42.36 93.73) rotate(-47.67)"/></g><path id="_Caminho_composto_" data-name="&lt;Caminho composto&gt;" class="cls-1" d="M194.66,113.77l-36.2-47.19H130.18v47.19h-16V1.78h44.6a88.29,88.29,0,0,1,19,1.94A48.16,48.16,0,0,1,193,9.7a30.19,30.19,0,0,1,10.1,10.1,27.6,27.6,0,0,1,3.64,14.46q0,13.09-7.6,20.77t-23.27,9.45l37.33,49.29Zm-64.48-100V54.62h33q13.73,0,20.44-4.78t6.71-15.66a18.52,18.52,0,0,0-2.1-8.92,18.2,18.2,0,0,0-5.74-6.41A27,27,0,0,0,173.89,15a42.2,42.2,0,0,0-10.75-1.3Z"/><path id="_Caminho_composto_2" data-name="&lt;Caminho composto&gt;" class="cls-1" d="M240.55,1.78v112H224.39V1.78Z"/><path id="_Caminho_composto_3" data-name="&lt;Caminho composto&gt;" class="cls-1" d="M269.45,80.32a21.2,21.2,0,0,0,3.31,10,24.7,24.7,0,0,0,7.35,7.24A33.89,33.89,0,0,0,290.78,102a57.78,57.78,0,0,0,13.41,1.46,49.71,49.71,0,0,0,10.59-1.22A39.87,39.87,0,0,0,325,98.57a24.38,24.38,0,0,0,7.6-6.07,13.22,13.22,0,0,0,3-8.66,16,16,0,0,0-2.18-8.66,17.7,17.7,0,0,0-5.9-5.75,35.9,35.9,0,0,0-8.81-3.72q-5.09-1.46-10.91-2.59l-17.13-3.4q-16-3.08-24.81-10.12t-8.81-20a23.43,23.43,0,0,1,3.47-12.79A29,29,0,0,1,270,7.61,48.26,48.26,0,0,1,284.4,1.94,78.52,78.52,0,0,1,302.25,0a83.65,83.65,0,0,1,21.9,2.5A43.34,43.34,0,0,1,339.1,9.45a27.66,27.66,0,0,1,8.57,10.42,30.61,30.61,0,0,1,2.75,12.93H334.09q-.81-10.18-8.73-15.68t-22.14-5.49q-13.74,0-22.06,4.77t-8.32,12.69a13.33,13.33,0,0,0,6.71,12q6.7,4.2,19,6.46l17.13,3.23a80.1,80.1,0,0,1,15.11,4,42,42,0,0,1,11.47,6.46,26.13,26.13,0,0,1,7.27,9.21A29.42,29.42,0,0,1,352,83.06a26.35,26.35,0,0,1-3.88,14.38,31.17,31.17,0,0,1-10.42,10.1,50.42,50.42,0,0,1-15.19,5.9,83.61,83.61,0,0,1-18.34,1.94q-23.11,0-36.68-8.24T252.16,80.32Z"/><path id="_Caminho_composto_4" data-name="&lt;Caminho composto&gt;" class="cls-1" d="M446,14.06H378.18V51.71h64v12h-64v37.81h69.65v12.28H362.18V1.78H446Z"/><path id="_Caminho_composto_5" data-name="&lt;Caminho composto&gt;" class="cls-1" d="M506.21,1.77h40.94q29.65,0,43.68,14.15t14,42A85.71,85.71,0,0,1,602,80.6a44.12,44.12,0,0,1-9.35,17.71,42.11,42.11,0,0,1-17.41,11.48q-10.88,4-27,4H506.21Zm40.94,12h-25v88.14h26.11q11.92,0,19.74-3a28.55,28.55,0,0,0,12.41-8.77,34.08,34.08,0,0,0,6.45-13.88,82.77,82.77,0,0,0,1.85-18.34q0-22.4-10-33.27T547.15,13.73Z"/><path id="_Caminho_composto_6" data-name="&lt;Caminho composto&gt;" class="cls-1" d="M699.53,14.06h-67.7V51.74h63.83v12H631.83v37.84H701.3v12.29H615.88V1.77h83.65Z"/><path id="_Caminho_composto_7" data-name="&lt;Caminho composto&gt;" class="cls-1" d="M774.12,1.8v112H758V1.8Z"/><path id="_Caminho_composto_8" data-name="&lt;Caminho composto&gt;" class="cls-1" d="M787.53,1.8h41.05q29.74,0,43.8,14.14t14.06,41.94a85.41,85.41,0,0,1-2.83,22.71,44.06,44.06,0,0,1-9.37,17.7,42.23,42.23,0,0,1-17.46,11.48q-10.91,4-27.07,4H787.53Zm41.05,12H803.53v88.09h26.18q12,0,19.8-3A28.62,28.62,0,0,0,862,90.08a34,34,0,0,0,6.47-13.87,82.46,82.46,0,0,0,1.86-18.33q0-22.38-10-33.25T828.59,13.76Z"/><path id="_Caminho_composto_9" data-name="&lt;Caminho composto&gt;" class="cls-1" d="M980,14.08H912.15V51.74h64v12h-64v37.82h69.66v12.28H896.15V1.8H980Z"/><path id="_Caminho_composto_10" data-name="&lt;Caminho composto&gt;" class="cls-1" d="M1095.76,113.81h-20.2l-67.08-92.29v92.29h-16V1.8h20.2l67.08,92.29V1.8h16Z"/><path id="_Caminho_composto_11" data-name="&lt;Caminho composto&gt;" class="cls-1" d="M1207.44,1.8v12H1164v100h-15.68v-100h-43.48V1.8Z"/><path id="_Caminho_composto_12" data-name="&lt;Caminho composto&gt;" class="cls-1" d="M1233.46,1.8v112H1217.3V1.8Z"/><path id="_Caminho_composto_13" data-name="&lt;Caminho composto&gt;" class="cls-1" d="M1249.34,1.8h41.05q29.74,0,43.8,14.14t14.06,41.94a85.39,85.39,0,0,1-2.83,22.71,44,44,0,0,1-9.37,17.7,42.24,42.24,0,0,1-17.46,11.48q-10.91,4-27.07,4h-42.19Zm41.05,12h-25.05v88.09h26.18q12,0,19.8-3a28.62,28.62,0,0,0,12.45-8.76,34,34,0,0,0,6.47-13.87,82.46,82.46,0,0,0,1.86-18.33q0-22.38-10-33.25T1290.39,13.76Z"/><path id="_Caminho_composto_14" data-name="&lt;Caminho composto&gt;" class="cls-1" d="M1446.41,113.81,1433,84.39H1372.7l-13.09,29.42h-16.49l52.37-112h15.19l52.85,112Zm-43.48-96L1378.2,72.91h49.62Z"/><path id="_Caminho_composto_15" data-name="&lt;Caminho composto&gt;" class="cls-1" d="M1473.07,1.8h41.05q29.74,0,43.8,14.14T1572,57.88a85.39,85.39,0,0,1-2.83,22.71,44,44,0,0,1-9.37,17.7,42.24,42.24,0,0,1-17.46,11.48q-10.91,4-27.07,4h-42.19Zm41.05,12h-25.05v88.09h26.18q12,0,19.8-3a28.62,28.62,0,0,0,12.45-8.76A34,34,0,0,0,1554,76.21a82.46,82.46,0,0,0,1.86-18.33q0-22.38-10-33.25T1514.13,13.76Z"/><path id="_Caminho_composto_16" data-name="&lt;Caminho composto&gt;" class="cls-1" d="M1666.67,14.08h-67.88V51.74h64v12h-64v37.82h69.66v12.28h-85.66V1.8h83.89Z"/></g></g></g></svg>